<?xml version="1.0" encoding="utf-8"?>
<!-- Generator: Adobe Illustrator 19.2.1, SVG Export Plug-In . SVG Version: 6.00 Build 0)  -->
<svg version="1.1" id="Layer_1" xmlns="http://www.w3.org/2000/svg" xmlns:xlink="http://www.w3.org/1999/xlink" x="0px" y="0px"
	 width="17.7px" height="15px" viewBox="0 0 17.7 15" style="enable-background:new 0 0 17.7 15;" xml:space="preserve">
<style type="text/css">
	.st0{fill-rule:evenodd;clip-rule:evenodd;fill:#FFFFFF;}
</style>
<path class="st0" d="M7,6.8H6.7C6.4,6.8,6.2,6.9,6,7.1C5.8,7.3,5.7,7.6,5.7,7.8V14c0,0.3,0.1,0.5,0.3,0.7S6.4,15,6.7,15h10
	c0.3,0,0.5-0.1,0.7-0.3c0.2-0.2,0.3-0.4,0.3-0.7V7.8c0-0.3-0.1-0.5-0.3-0.7c-0.2-0.2-0.4-0.3-0.7-0.3h-0.3h-2H10H9.3v-2
	c0-1.3-0.5-2.4-1.4-3.4S5.9,0,4.7,0C3.4,0,2.3,0.5,1.4,1.4C0.5,2.3,0,3.5,0,4.8v2h2v-2C2,4,2.3,3.4,2.8,2.8C3.3,2.3,3.9,2,4.7,2
	S6,2.3,6.5,2.8C7.1,3.4,7.3,4,7.3,4.8v2H7z"/>
</svg>
