<?xml version="1.0" encoding="utf-8"?>
<!-- Generator: Adobe Illustrator 19.2.1, SVG Export Plug-In . SVG Version: 6.00 Build 0)  -->
<svg version="1.1" id="Layer_1" xmlns="http://www.w3.org/2000/svg" xmlns:xlink="http://www.w3.org/1999/xlink" x="0px" y="0px"
	 width="12px" height="15px" viewBox="0 0 12 15" style="enable-background:new 0 0 12 15;" xml:space="preserve">
<style type="text/css">
	.st0{fill-rule:evenodd;clip-rule:evenodd;fill:#FFFFFF;}
</style>
<path class="st0" d="M3.3,4.8c0-0.8,0.3-1.4,0.8-1.9C4.6,2.3,5.3,2,6,2c0.7,0,1.4,0.3,1.9,0.8C8.4,3.4,8.7,4,8.7,4.8v2H3.3V4.8z
	 M11.7,7.1c-0.2-0.2-0.4-0.3-0.7-0.3h-0.3v-2c0-1.3-0.5-2.4-1.4-3.4C8.4,0.5,7.3,0,6,0C4.7,0,3.6,0.5,2.7,1.4
	C1.8,2.3,1.3,3.5,1.3,4.8v2H1c-0.3,0-0.5,0.1-0.7,0.3C0.1,7.3,0,7.6,0,7.8V14c0,0.3,0.1,0.5,0.3,0.7C0.5,14.9,0.7,15,1,15h10
	c0.3,0,0.5-0.1,0.7-0.3c0.2-0.2,0.3-0.4,0.3-0.7V7.8C12,7.6,11.9,7.3,11.7,7.1z"/>
</svg>
