<?xml version="1.0" encoding="utf-8"?>
<!-- Generator: Adobe Illustrator 19.2.1, SVG Export Plug-In . SVG Version: 6.00 Build 0)  -->
<svg version="1.1" id="Layer_1" xmlns="http://www.w3.org/2000/svg" xmlns:xlink="http://www.w3.org/1999/xlink" x="0px" y="0px"
	 width="28px" height="28px" viewBox="0 0 28 28" style="enable-background:new 0 0 28 28;" xml:space="preserve">
<style type="text/css">
	.st0{opacity:0.3;}
	.st1{fill-rule:evenodd;clip-rule:evenodd;}
</style>
<g class="st0">
	<path d="M14,1c7.2,0,13,5.8,13,13c0,7.2-5.8,13-13,13C6.8,27,1,21.2,1,14C1,6.8,6.8,1,14,1 M14,0C6.3,0,0,6.3,0,14
		c0,7.7,6.3,14,14,14s14-6.3,14-14C28,6.3,21.7,0,14,0L14,0z"/>
</g>
<path class="st1" d="M8.5,16l5.5-5.3l0,0l0,0l5.5,5.3l-1.3,1.3l-4.2-4l-4.2,4L8.5,16z"/>
</svg>
