<?xml version="1.0" encoding="utf-8"?>
<!-- Generator: Adobe Illustrator 19.2.1, SVG Export Plug-In . SVG Version: 6.00 Build 0)  -->
<svg version="1.1" id="Layer_1" xmlns="http://www.w3.org/2000/svg" xmlns:xlink="http://www.w3.org/1999/xlink" x="0px" y="0px"
	 width="28px" height="28px" viewBox="0 0 28 28" style="enable-background:new 0 0 28 28;" xml:space="preserve">
<style type="text/css">
	.st0{opacity:0.3;}
</style>
<g class="st0">
	<path d="M14,27C6.8,27,1,21.2,1,14S6.8,1,14,1s13,5.8,13,13S21.2,27,14,27 M14,28c7.7,0,14-6.3,14-14S21.7,0,14,0S0,6.3,0,14
		S6.3,28,14,28L14,28z"/>
</g>
<path d="M19.5,12L14,17.3l0,0l0,0L8.5,12l1.3-1.3l4.2,4l4.2-4L19.5,12z"/>
</svg>
