<?xml version="1.0" encoding="utf-8"?>
<!-- Generator: Adobe Illustrator 19.2.1, SVG Export Plug-In . SVG Version: 6.00 Build 0)  -->
<svg version="1.1" id="Layer_1" xmlns="http://www.w3.org/2000/svg" xmlns:xlink="http://www.w3.org/1999/xlink" x="0px" y="0px"
	 width="25px" height="25px" viewBox="0 0 25 25" style="enable-background:new 0 0 25 25;" xml:space="preserve">
<style type="text/css">
	.st0{fill-rule:evenodd;clip-rule:evenodd;}
</style>
<path class="st0" d="M24.9,17.7c-0.1,1.3-0.3,2.2-0.6,3c-0.3,0.8-0.7,1.5-1.4,2.2c-0.7,0.7-1.4,1.1-2.2,1.4c-0.8,0.3-1.7,0.5-3,0.6
	C16.3,25,15.9,25,12.5,25c-3.4,0-3.8,0-5.2-0.1c-1.3-0.1-2.2-0.3-3-0.6c-0.8-0.3-1.5-0.7-2.2-1.4c-0.7-0.7-1.1-1.4-1.4-2.2
	c-0.3-0.8-0.5-1.7-0.6-3C0,16.3,0,15.9,0,12.5c0-3.4,0-3.8,0.1-5.2c0.1-1.3,0.3-2.2,0.6-3C1,3.5,1.4,2.8,2.1,2.1
	C2.8,1.4,3.5,1,4.3,0.7c0.8-0.3,1.7-0.5,3-0.6C8.7,0,9.1,0,12.5,0c3.4,0,3.8,0,5.2,0.1c1.3,0.1,2.2,0.3,3,0.6
	c0.8,0.3,1.5,0.7,2.2,1.4c0.7,0.7,1.1,1.4,1.4,2.2c0.3,0.8,0.5,1.7,0.6,3C25,8.7,25,9.1,25,12.5C25,15.9,25,16.3,24.9,17.7z
	 M22.7,7.4c-0.1-1.2-0.3-1.9-0.4-2.3c-0.2-0.6-0.5-1-0.9-1.4c-0.4-0.4-0.9-0.7-1.4-0.9c-0.4-0.2-1.1-0.4-2.3-0.4
	c-1.3-0.1-1.7-0.1-5.1-0.1c-3.3,0-3.7,0-5.1,0.1C6.2,2.4,5.6,2.6,5.1,2.8C4.5,3,4.1,3.3,3.7,3.7C3.3,4.1,3,4.5,2.8,5.1
	C2.6,5.6,2.4,6.2,2.3,7.4c-0.1,1.3-0.1,1.7-0.1,5.1c0,3.3,0,3.7,0.1,5.1c0.1,1.2,0.3,1.9,0.4,2.3c0.2,0.6,0.5,1,0.9,1.4
	c0.4,0.4,0.9,0.7,1.4,0.9c0.4,0.2,1.1,0.4,2.3,0.4c1.3,0.1,1.7,0.1,5.1,0.1c3.3,0,3.7,0,5.1-0.1c1.2-0.1,1.9-0.3,2.3-0.4
	c0.6-0.2,1-0.5,1.4-0.9c0.4-0.4,0.7-0.9,0.9-1.4c0.2-0.4,0.4-1.1,0.4-2.3c0.1-1.3,0.1-1.7,0.1-5.1C22.7,9.2,22.7,8.8,22.7,7.4z
	 M19.2,7.3c-0.8,0-1.5-0.7-1.5-1.5c0-0.8,0.7-1.5,1.5-1.5c0.8,0,1.5,0.7,1.5,1.5C20.7,6.7,20,7.3,19.2,7.3z M12.5,18.9
	c-3.5,0-6.4-2.9-6.4-6.4C6.1,9,9,6.1,12.5,6.1c3.5,0,6.4,2.9,6.4,6.4C18.9,16,16,18.9,12.5,18.9z M12.5,8.3c-2.3,0-4.2,1.9-4.2,4.2
	s1.9,4.2,4.2,4.2s4.2-1.9,4.2-4.2S14.8,8.3,12.5,8.3z"/>
</svg>
