<?xml version="1.0" encoding="utf-8"?>
<!-- Generator: Adobe Illustrator 19.2.1, SVG Export Plug-In . SVG Version: 6.00 Build 0)  -->
<svg version="1.1" id="Layer_1" xmlns="http://www.w3.org/2000/svg" xmlns:xlink="http://www.w3.org/1999/xlink" x="0px" y="0px"
	 width="21px" height="17px" viewBox="0 0 21 17" style="enable-background:new 0 0 21 17;" xml:space="preserve">
<path d="M20.4,16.4C20,16.8,19.6,17,19.1,17H1.9c-0.5,0-1-0.2-1.3-0.6C0.2,16.1,0,15.6,0,15.1V5.5c0.3,0.4,0.7,0.7,1.2,1.1
	C4,8.5,6,9.9,7,10.7c0.4,0.3,0.8,0.6,1.1,0.8s0.6,0.4,1.1,0.6c0.5,0.2,0.9,0.3,1.3,0.3l0,0l0,0c0.4,0,0.8-0.1,1.3-0.3
	s0.8-0.4,1.1-0.6c0.3-0.2,0.6-0.5,1.1-0.8c1.3-1,3.3-2.4,5.8-4.2c0.4-0.3,0.8-0.7,1.2-1.1V15C21,15.6,20.8,16.1,20.4,16.4z M19,5.2
	c-2.9,2.1-4.8,3.4-5.5,3.9c-0.1,0.1-0.2,0.2-0.5,0.4s-0.5,0.3-0.6,0.5c-0.2,0.1-0.4,0.2-0.6,0.4c-0.2,0.1-0.5,0.3-0.7,0.3
	c-0.2,0.1-0.4,0.1-0.6,0.1l0,0l0,0c-0.2,0-0.4,0-0.6-0.1c-0.2-0.1-0.4-0.2-0.7-0.3C9,10.2,8.8,10.1,8.6,10C8.5,9.9,8.2,9.7,8,9.5
	C7.7,9.3,7.6,9.2,7.5,9.2C6.8,8.7,5.8,7.9,4.4,7C3.1,6,2.3,5.4,2,5.2C1.5,4.9,1.1,4.4,0.6,3.8C0.2,3.3,0,2.7,0,2.2
	C0,1.6,0.2,1,0.5,0.6S1.3,0,1.9,0h17.3c0.5,0,0.9,0.2,1.3,0.6C20.8,0.9,21,1.4,21,1.9c0,0.6-0.2,1.2-0.6,1.8S19.6,4.8,19,5.2z"/>
</svg>
