<?xml version="1.0" encoding="utf-8"?>
<!-- Generator: Adobe Illustrator 19.2.1, SVG Export Plug-In . SVG Version: 6.00 Build 0)  -->
<svg version="1.1" id="Layer_1" xmlns="http://www.w3.org/2000/svg" xmlns:xlink="http://www.w3.org/1999/xlink" x="0px" y="0px"
	 width="20px" height="19px" viewBox="0 0 20 19" style="enable-background:new 0 0 20 19;" xml:space="preserve">
<style type="text/css">
	.st0{opacity:0.7;}
</style>
<g class="st0">
	<g>
		<path d="M5,19h10v-6.3H5V19z M6.3,13.9h7.5v1.3H6.3V13.9z M6.3,16.5h7.5v1.3H6.3V16.5z M15,0H5v6.3h10V0z M17.5,3.8h-1.3v3.8H3.8
			V3.8H2.5C1.3,3.8,0,5.1,0,6.3v6.3c0,1.3,1.3,2.5,2.5,2.5h1.2v-3.8h12.5v3.8h1.3c1.2,0,2.5-1.3,2.5-2.5V6.3
			C20,5.1,18.8,3.8,17.5,3.8z"/>
	</g>
</g>
</svg>
