<?xml version="1.0" encoding="utf-8"?>
<!-- Generator: Adobe Illustrator 19.2.1, SVG Export Plug-In . SVG Version: 6.00 Build 0)  -->
<svg version="1.1" id="Layer_1" xmlns="http://www.w3.org/2000/svg" xmlns:xlink="http://www.w3.org/1999/xlink" x="0px" y="0px"
	 width="18px" height="19px" viewBox="0 0 18 19" style="enable-background:new 0 0 18 19;" xml:space="preserve">
<path d="M14.6,12.2c-1.1,0-2.1,0.5-2.7,1.3l-5.2-2.9c0.1-0.4,0.2-0.7,0.2-1.1c0-0.4-0.1-0.8-0.2-1.1l5.2-2.9
	c0.6,0.8,1.6,1.3,2.7,1.3c1.9,0,3.4-1.5,3.4-3.4C18,1.5,16.5,0,14.6,0s-3.4,1.5-3.4,3.4c0,0.4,0.1,0.8,0.2,1.1L6.1,7.4
	C5.5,6.6,4.5,6.1,3.4,6.1C1.5,6.1,0,7.6,0,9.5s1.5,3.4,3.4,3.4c1.1,0,2.1-0.5,2.7-1.3l5.2,2.9c-0.1,0.4-0.2,0.7-0.2,1.1
	c0,1.9,1.5,3.4,3.4,3.4s3.4-1.5,3.4-3.4C18,13.7,16.5,12.2,14.6,12.2z"/>
</svg>
