<?xml version="1.0" encoding="utf-8"?>
<!-- Generator: Adobe Illustrator 19.2.1, SVG Export Plug-In . SVG Version: 6.00 Build 0)  -->
<svg version="1.1" id="Layer_1" xmlns="http://www.w3.org/2000/svg" xmlns:xlink="http://www.w3.org/1999/xlink" x="0px" y="0px"
	 width="25px" height="18px" viewBox="0 0 25 18" style="enable-background:new 0 0 25 18;" xml:space="preserve">
<style type="text/css">
	.st0{fill-rule:evenodd;clip-rule:evenodd;}
</style>
<path class="st0" d="M25,6.9c0,0.5,0,1.2,0,2.1c0,0.9,0,1.6,0,2.1c0,0.5,0,1.1-0.1,1.9c-0.1,0.8-0.2,1.5-0.3,2.1
	c-0.1,0.7-0.5,1.3-1,1.7c-0.5,0.5-1.1,0.7-1.7,0.8c-2.1,0.2-5.2,0.4-9.4,0.4c-4.2,0-7.3-0.1-9.4-0.4c-0.7-0.1-1.2-0.3-1.7-0.8
	c-0.5-0.5-0.8-1-1-1.7c-0.1-0.6-0.2-1.3-0.3-2.1C0.1,12.3,0,11.6,0,11.1C0,10.6,0,9.9,0,9c0-0.9,0-1.6,0-2.1c0-0.5,0-1.1,0.1-1.9
	c0.1-0.8,0.2-1.5,0.3-2.1c0.1-0.7,0.5-1.3,1-1.7c0.5-0.5,1.1-0.7,1.7-0.8C5.2,0.1,8.3,0,12.5,0c4.2,0,7.3,0.1,9.4,0.4
	c0.7,0.1,1.2,0.3,1.7,0.8c0.5,0.5,0.8,1,1,1.7c0.1,0.6,0.2,1.3,0.3,2.1C24.9,5.7,25,6.4,25,6.9z M17.9,9c0-0.3-0.1-0.6-0.4-0.8
	l-7.1-4.5c-0.3-0.2-0.6-0.2-0.9,0C9.1,3.9,8.9,4.1,8.9,4.5v9c0,0.4,0.2,0.6,0.5,0.8c0.1,0.1,0.3,0.1,0.4,0.1c0.2,0,0.3,0,0.5-0.1
	l7.1-4.5C17.7,9.6,17.9,9.3,17.9,9z"/>
</svg>
